<?xml version="1.0" standalone="no"?>
<!DOCTYPE svg PUBLIC "-//W3C//DTD SVG 20010904//EN"
 "http://www.w3.org/TR/2001/REC-SVG-20010904/DTD/svg10.dtd">
<svg version="1.0" xmlns="http://www.w3.org/2000/svg"
 width="612.000000pt" height="367.000000pt" viewBox="0 0 612.000000 367.000000"
 preserveAspectRatio="xMidYMid meet">

<g transform="translate(0.000000,367.000000) scale(0.100000,-0.100000)"
fill="#000000" stroke="none">
<path d="M1326 2772 c-3 -5 4 -71 14 -148 11 -76 20 -145 20 -151 0 -7 9 -13
20 -13 18 0 20 5 16 33 -12 67 -26 189 -26 215 0 26 3 27 38 25 20 -2 807 -37
1747 -79 941 -42 1711 -77 1712 -78 2 -1 0 -311 -4 -689 l-6 -687 -116 -1
c-158 -1 -215 -9 -219 -31 -3 -17 9 -18 180 -12 101 4 185 9 188 11 8 7 20
1437 12 1444 -4 4 -331 21 -727 38 -396 18 -958 43 -1250 56 -291 13 -741 33
-1000 44 -259 11 -498 23 -532 25 -34 3 -64 2 -67 -2z"/>
<path d="M2987 2059 c-24 -14 -47 -62 -47 -99 0 -44 22 -81 75 -124 33 -27 45
-44 43 -60 -3 -18 -10 -21 -53 -21 -49 0 -50 -1 -53 -31 -4 -42 18 -58 79 -57
60 1 96 23 116 71 22 54 5 98 -63 161 -68 63 -69 86 -4 86 l45 0 0 40 0 40
-60 2 c-33 2 -68 -2 -78 -8z"/>
<path d="M4469 2042 c-22 -19 -31 -37 -32 -62 -2 -34 -1 -35 40 -38 38 -3 43
-1 49 22 4 17 13 26 25 26 15 0 19 -7 19 -37 0 -45 -7 -58 -38 -67 -20 -7 -23
-13 -20 -54 l3 -47 43 -3 c38 -3 42 -1 42 19 0 13 14 38 31 55 55 57 49 172
-10 204 -11 5 -42 10 -70 10 -41 0 -56 -5 -82 -28z"/>
<path d="M1580 2051 c0 -25 83 -357 92 -368 6 -7 23 -13 39 -13 36 0 43 14 68
130 19 92 19 92 47 -35 18 -86 24 -95 67 -95 20 0 30 7 37 25 8 20 90 350 90
361 0 2 -20 4 -44 4 l-45 0 -11 -57 c-6 -32 -17 -80 -24 -108 l-13 -50 -12 60
c-6 33 -17 82 -23 108 l-10 48 -41 -3 -41 -3 -19 -103 c-11 -57 -22 -101 -25
-98 -3 3 -15 50 -26 103 l-21 98 -43 3 c-24 2 -42 -1 -42 -7z"/>
<path d="M2072 1868 c3 -211 3 -209 64 -194 23 6 24 10 24 81 0 65 2 74 20 80
11 3 29 3 40 0 18 -6 20 -15 20 -80 0 -71 1 -75 24 -81 61 -15 61 -17 64 194
l2 192 -44 0 -45 0 -3 -67 -3 -68 -37 -3 -38 -3 0 70 0 71 -45 0 -45 0 2 -192z"/>
<path d="M2471 2023 c-6 -21 -28 -105 -50 -188 -22 -82 -37 -153 -32 -158 13
-13 73 -4 82 13 4 8 10 23 13 33 4 13 16 17 49 17 41 0 45 -2 53 -32 6 -19 17
-34 28 -36 27 -6 66 7 66 21 1 6 -21 92 -47 190 l-48 177 -52 0 c-52 0 -52 0
-62 -37z m82 -205 c-2 -5 -13 -8 -25 -8 -19 0 -20 4 -13 57 11 88 18 94 31 23
6 -36 10 -68 7 -72z"/>
<path d="M2687 2028 c-5 -37 7 -58 34 -58 25 0 29 -21 32 -170 l2 -125 40 0
40 0 3 147 3 147 27 3 c24 3 27 8 30 46 l3 42 -104 0 -105 0 -5 -32z"/>
<path d="M3370 1870 l0 -190 24 -6 c57 -14 61 -7 64 101 l3 100 52 -100 52
-100 45 0 45 0 3 193 2 192 -44 0 -45 0 -3 -102 -3 -103 -53 103 -52 102 -45
0 -45 0 0 -190z"/>
<path d="M3742 1868 l3 -193 80 -3 c90 -3 105 6 97 57 -4 27 -8 30 -46 33 -38
3 -41 5 -41 33 0 27 3 30 38 33 36 3 37 4 37 42 0 38 -1 39 -37 42 -35 3 -38
6 -38 33 0 28 3 30 43 33 42 3 42 3 42 43 l0 39 -90 0 -90 0 2 -192z"/>
<path d="M3960 2056 c0 -13 82 -345 90 -363 10 -23 52 -31 76 -15 6 4 20 49
30 100 10 50 21 92 25 92 3 0 14 -39 24 -87 19 -100 27 -113 65 -113 15 0 32
6 37 13 9 10 93 348 93 370 0 5 -19 7 -42 5 l-43 -3 -13 -60 c-8 -33 -19 -80
-26 -105 l-12 -45 -18 95 c-24 124 -22 120 -66 120 l-39 0 -11 -57 c-7 -32
-17 -83 -24 -113 l-12 -55 -24 113 -23 112 -44 0 c-23 0 -43 -2 -43 -4z"/>
<path d="M4518 1734 c-17 -36 0 -59 42 -59 42 0 59 23 42 59 -9 20 -19 26 -42
26 -23 0 -33 -6 -42 -26z"/>
<path d="M1584 1224 c4 -38 10 -86 13 -108 l6 -39 141 7 c78 3 465 13 861 21
819 18 848 19 843 43 -3 15 -19 17 -133 14 -72 -1 -409 -9 -750 -17 -341 -8
-690 -16 -775 -17 l-155 -3 -10 80 c-8 66 -13 80 -29 83 -18 4 -18 -1 -12 -64z"/>
</g>
</svg>
